# xmcd CD database file
#
# Track frame offsets:
#	150
#	12910
#	26128
#	39961
#	54132
#	65931
#	79628
#	94106
#	108508
#	122174
#	134171
#	147825
#	161550
#	176212
#	189933
#	203568
#	215581
#	230436
#	244507
#	258384
#	272944
#	286953
#	301352
#
# Disc length: 4194 seconds
#
# Revision: 10
# Processed by: cddbd v1.5.2PL0 Copyright (c) Steve Scherf et al.
# Submitted via: CDex 1.51
#
DISCID=4f106017
DTITLE=Nat King Cole - Vol.05 - Route 66
DYEAR=1900
DGENRE=Jazz
TTITLE0=Oh, But I Do
TTITLE1=How Does It Feel
TTITLE2=I Can't Believe That You're Love With Me
TTITLE3=The Way You Look Tonight
TTITLE4=Airness A La Nat
TTITLE5=My Old Flame
TTITLE6=I'm In The Mood For Love
TTITLE7=I Don't Know Why  (I Just Do)
TTITLE8=Route 66
TTITLE9=Everyone Is Sayin' Hello Again
TTITLE10=Route 66 [2]
TTITLE11=What Can I Say After I Say I'm Sorry
TTITLE12=To A Wild Rose
TTITLE13=Could-'Ja
TTITLE14=Baby, Baby All The Time
TTITLE15=Oh, But I Do
TTITLE16=Rex Rhumba
TTITLE17=But She's My Buddy's Chick
TTITLE18=You Call It Madness  (But I Call It Love)
TTITLE19=The Christmas Song
TTITLE20=The Best Man
TTITLE21=The Christmas Song [2]
TTITLE22=You Should Have Told Me
EXTD=
EXTT0=
EXTT1=
EXTT2=
EXTT3=
EXTT4=
EXTT5=
EXTT6=
EXTT7=
EXTT8=
EXTT9=
EXTT10=
EXTT11=
EXTT12=
EXTT13=
EXTT14=
EXTT15=
EXTT16=
EXTT17=
EXTT18=
EXTT19=
EXTT20=
EXTT21=
EXTT22=
PLAYORDER=
